<svg xmlns="http://www.w3.org/2000/svg" viewBox="0 0 147.67 233.84"><defs><style>.cls-1{fill:#231f20;}</style></defs><g id="Layer_2" data-name="Layer 2"><path class="cls-1" d="M81.88,56.4A21.22,21.22,0,0,0,81.19,44L70.73,15.51A21.36,21.36,0,0,0,43.39,2.84L14,13.63A21.35,21.35,0,0,0,1.3,41l10.46,28.5a21,21,0,0,0,7.48,9.88l.19.52.38-.14a21.71,21.71,0,0,0,3,1.72,21.11,21.11,0,0,0,16.29.69L68.52,71.36A21.29,21.29,0,0,0,81.71,57l.35-.13ZM8.1,38.48a14.1,14.1,0,0,1,8.37-18.06L45.88,9.64a13.85,13.85,0,0,1,4.83-.87A14.11,14.11,0,0,1,63.94,18l6.38,17.39a1.5,1.5,0,0,0,.06.22c.47,1.29-.89,2.21-.89,2.21h0L16.92,57.1h0l-.45.17a1.59,1.59,0,0,1-1.84-1ZM66,64.57,36.61,75.36a14,14,0,0,1-6.8.71L71.69,60.71A14.12,14.12,0,0,1,66,64.57Z"/><rect class="cls-1" x="13.32" y="4.07" width="33.98" height="15.47" rx="4.6" transform="translate(-2.21 11.16) rotate(-20.14)"/><circle class="cls-1" cx="71.59" cy="212.89" r="8.64"/><circle class="cls-1" cx="124.95" cy="193.32" r="8.64"/><path class="cls-1" d="M140.59,156.3,105.05,59.41A29,29,0,0,0,67.9,42.2L19.07,60.11A29,29,0,0,0,1.86,97.26l10.85,29.56h0l2.65,7.23c2.33,5.2,6.16,11.43,11.36,12.17a23.51,23.51,0,0,0,13.13-1.7c-.12-.56-3.19-2.07-3.28-2.2a1.94,1.94,0,0,1,.36-1.35,4.5,4.5,0,0,1,3.12-1.23c1.52.06,11.24.46,15.25-.88s8-6.4,8-6.4c-.29-.58-18.52-7.81-19.55-8.17s-.79-1.05-.79-1.05c3-3.11,9.1-4.51,15.75-3.09s18.27,1.25,19.36,1,14.13-6,15.81-6.45,8.67-2.13,9.89-.46a2.82,2.82,0,0,1-.24,3.37c-3,4.56-22,13.06-22,13.06l.93,10.42s.25,1.35-.25,1.53a1.19,1.19,0,0,1-1-.13l-8.12-7.41s-6.87,4.71-24.12,11.69c-19.88,8-19.09,24.08-17.68,31l6,16.37a29,29,0,0,0,37.15,17.21l48.83-17.91A29,29,0,0,0,140.59,156.3Z"/><ellipse class="cls-1" cx="74.33" cy="230.59" rx="73.34" ry="3.25"/></g></svg>