<svg xmlns="http://www.w3.org/2000/svg" viewBox="0 0 296.74 99.45"><defs><style>.cls-1{fill:#231f20;}</style></defs><g id="Layer_2" data-name="Layer 2"><path class="cls-1" d="M44.11,11C43,9,41.36,8.34,37.65,8.34H14c-2.49,0-3.92.66-3.92,2.19,0,1.37.92,2.14,4,2.39L41.31,14c9.26.61,11.95,5.65,11.9,10.73,0,5.75-3.56,10.79-13.22,10.79H15.72c-8.85,0-13.94-2.8-15.72-7.38L9.16,23.6c1.07,2.85,2.85,3.57,6.61,3.57H40c2.79,0,4.12-.72,4.12-2.4S43,22.54,40.29,22.33L12.72,21.11C3.82,20.5,1,15.77,1,10.73,1,4.88,4.63,0,14.5,0H37.75c8.24,0,13.07,2.49,15,6.51Z"/><path class="cls-1" d="M105.35,13.38V.15h10.33V35.36H105.35V22.23H70V35.36H59.67V.15H70V13.38Z"/><path class="cls-1" d="M183.69,35.36H172.55L168,29.15H136.79l-4.53,6.21H121.12L147.47.15h9.87ZM152.4,8.24l-9.66,12.87h19.33Z"/><path class="cls-1" d="M232.93,35.36l-6.36-10.08H199.05V35.36h-9.92V.15h37.59c12.67,0,16.54,5.65,16.54,12.72v.05c0,4.73-1.79,8.75-6.92,10.84l7.83,11.6ZM199.05,9v7.89h27.67c4.89,0,6.67-1.12,6.67-3.92v-.05c0-2.75-1.78-3.92-6.67-3.92Z"/><path class="cls-1" d="M296.74.15v8.5h-36.4v5h36.12v8.25H260.34v4.93h36.4v8.5H250.42V.15Z"/><path class="cls-1" d="M28.85,62.74,46.68,44.57h9V78.93H46.13V58l-15,15.35H26.62L11.57,58V78.93H2V44.57h9Z"/><path class="cls-1" d="M84.37,59.41,97.62,44.57h12.12L89.23,67.11V78.93H79.55V67.11L59,44.57H71.16Z"/><path class="cls-1" d="M176.77,69.44c0,6.61-5.51,9.49-13.46,9.49H130.2V44.57h31.72c8.69,0,13.41,3.08,13.41,9.43,0,4.87-2.28,6.85-5.71,7.65C173.64,62.34,176.77,64.28,176.77,69.44ZM139.63,52.26v5.81h22.49c2.19,0,3.88-.44,3.88-2.78,0-2.13-1.64-3-4.08-3Zm0,18.92h23.68c2.54,0,4.08-.74,4.08-2.93,0-1.83-1.25-2.93-4-2.93H139.63Z"/><path class="cls-1" d="M232.83,78.93H222.4l-3.67-6.21h-25L190,78.93H179.6l21.8-34.36H211ZM206.21,52.86l-7.64,12h15.29Z"/><path class="cls-1" d="M276.37,55.44c-2-2-4.71-2.53-8.58-2.53H253c-6.31,0-9.78,3.23-9.78,8.79v0c0,5.46,3.42,8.84,9.63,8.84h13.9c3.78,0,6.56-.6,7.95-2.49v-.64H263.22V60h19.61V78.93h-5.61l-.6-3.48c-2.23,2.73-5.46,3.78-10.27,3.78H252.44c-11.72,0-18.67-6.71-18.67-17.48v0c0-10.78,7-17.43,19.22-17.43h14.8c6.45,0,10.72,1.09,14.15,4.37Z"/><path class="cls-1" d="M17.26,89.23v1.6h-12v3H16.36v1.57H5.21v3.84H3.45v-10Z"/><path class="cls-1" d="M21.52,99.27v-10h1.81v10Z"/><path class="cls-1" d="M41.92,89.23h1.8v10H42L30.13,91.36v7.91h-1.8v-10H30.1l11.82,7.92Z"/><path class="cls-1" d="M58.86,89.23c3.67,0,5.66,1.77,5.66,5h0c0,3.26-2,5-5.66,5H48.72v-10Zm-8.33,8.45h8.33c2.66,0,3.92-1.19,3.92-3.42h0c0-2.23-1.26-3.42-3.92-3.42H50.53Z"/><path class="cls-1" d="M68.33,98.39c0-.64.55-1.08,1.43-1.08s1.44.44,1.44,1.08-.55,1.06-1.44,1.06S68.33,99,68.33,98.39Z"/><path class="cls-1" d="M86.39,89.23c3.11,0,4.33,1.49,4.33,3.66h0c0,2.16-1.22,3.64-4.33,3.64H77.66v2.73H75.9v-10ZM89,92.89c0-1.34-.74-2.06-2.57-2.06H77.66V95h8.73c1.83,0,2.57-.73,2.57-2Z"/><path class="cls-1" d="M110.43,99.27h-2L106.76,97H97.18l-1.71,2.28h-2l7.61-10h1.72ZM102,90.68l-3.73,4.88h7.46Z"/><path class="cls-1" d="M119.31,94.47,125,89.23h2.4l-7.23,6.6v3.44h-1.8V95.83l-7.23-6.6h2.4Z"/><path class="cls-1" d="M129.44,98.39c0-.64.55-1.08,1.44-1.08s1.44.44,1.44,1.08-.56,1.06-1.44,1.06S129.44,99,129.44,98.39Z"/><path class="cls-1" d="M147.16,89.23c3.67,0,5.66,1.77,5.66,5h0c0,3.26-2,5-5.66,5H137v-10Zm-8.33,8.45h8.33c2.66,0,3.92-1.19,3.92-3.42h0c0-2.23-1.26-3.42-3.92-3.42h-8.33Z"/><path class="cls-1" d="M171.05,89.23v1.51H159v2.8h11.16V95H159v2.74h12.06v1.51H157.24v-10Z"/><path class="cls-1" d="M177.35,89.23V97.6h11.39v1.67h-13.2v-10Z"/><path class="cls-1" d="M193,99.27v-10h1.81v10Z"/><path class="cls-1" d="M207,97.54l6-8.31h2.19l-7.33,10h-1.72l-7.33-10H201Z"/><path class="cls-1" d="M232.94,89.23v1.51H220.88v2.8H232V95H220.88v2.74h12.06v1.51H219.12v-10Z"/><path class="cls-1" d="M252.49,99.27h-2l-2.29-3.21h-9v3.21h-1.76v-10H248c3.08,0,4.27,1.49,4.27,3.44h0a3,3,0,0,1-2.32,3.14ZM239.18,90.8v3.75H248c1.74,0,2.51-.68,2.51-1.87h0c0-1.19-.77-1.87-2.51-1.87Z"/><path class="cls-1" d="M270.63,89.23v1.51H258.57v2.8h11.16V95H258.57v2.74h12.06v1.51H256.81v-10Z"/><path class="cls-1" d="M285.26,89.23c3.67,0,5.66,1.77,5.66,5h0c0,3.26-2,5-5.66,5H275.11v-10Zm-8.33,8.45h8.33c2.65,0,3.92-1.19,3.92-3.42h0c0-2.23-1.27-3.42-3.92-3.42h-8.33Z"/></g></svg>